<svg xmlns="http://www.w3.org/2000/svg" xmlns:xlink="http://www.w3.org/1999/xlink" width="255" height="81" viewBox="0 0 255 81">
  <defs>
    <linearGradient id="linear-gradient" x1="0.924" y1="0.092" x2="0.046" y2="0.954" gradientUnits="objectBoundingBox">
      <stop offset="0" stop-color="#657178"/>
      <stop offset="1" stop-color="#96a0a7"/>
    </linearGradient>
    <linearGradient id="linear-gradient-2" x1="0.068" y1="0.897" x2="0.899" y2="0.138" gradientUnits="objectBoundingBox">
      <stop offset="0" stop-color="#ffad39"/>
      <stop offset="1" stop-color="#f15a24"/>
    </linearGradient>
    <clipPath id="clip-ait_logo_light">
      <rect width="255" height="81"/>
    </clipPath>
  </defs>
  <g id="ait_logo_light" clip-path="url(#clip-ait_logo_light)">
    <path id="Path_776" data-name="Path 776" d="M46.087,46.089H24.2V32.262H32.26V24.2H46.087V46.089Zm-24.2,0H0V24.2H13.827v8.066H21.89V46.089Zm24.2-24.2H32.26V13.827H24.2V0h21.89V21.893Zm-32.26,0H0V0H21.89V13.827H13.827v8.066Z" transform="translate(41.172 16.529)" fill="url(#linear-gradient)"/>
    <path id="Path_772" data-name="Path 772" d="M.025,24.412H15.189A6.686,6.686,0,0,1,21.875,31.1V46.031A23.046,23.046,0,0,1,.025,24.412ZM24.179,31.1a6.685,6.685,0,0,1,6.684-6.686H46.028A23.046,23.046,0,0,1,24.179,46.031Zm6.684-8.99a6.684,6.684,0,0,1-6.684-6.684V0A23.045,23.045,0,0,1,46.052,22.107ZM0,22.107A23.045,23.045,0,0,1,21.875,0V15.423a6.685,6.685,0,0,1-6.686,6.684Z" transform="translate(3.15 16.299)" fill="url(#linear-gradient-2)"/>
    <path id="Path_775" data-name="Path 775" d="M17.139-32.637q5.742,0,8.525,2.578t2.783,8.232V0H24.9l-.937-4.746H23.73A17.325,17.325,0,0,1,20.918-1.8,10.116,10.116,0,0,1,17.534-.015a15.912,15.912,0,0,1-4.7.6,12.512,12.512,0,0,1-5.2-1.025A8.016,8.016,0,0,1,4.058-3.545a9.771,9.771,0,0,1-1.3-5.273A8.382,8.382,0,0,1,6.563-16.2q3.809-2.578,11.6-2.812l5.537-.234v-1.963q0-4.16-1.787-5.83a7.1,7.1,0,0,0-5.039-1.67,15.646,15.646,0,0,0-4.8.732A32.877,32.877,0,0,0,7.734-26.25L6.24-29.941a26.772,26.772,0,0,1,4.98-1.9A21.759,21.759,0,0,1,17.139-32.637Zm6.5,16.816-4.893.205q-6.006.234-8.467,1.963A5.628,5.628,0,0,0,7.822-8.76a4.871,4.871,0,0,0,1.67,4.072,6.937,6.937,0,0,0,4.424,1.318,10.275,10.275,0,0,0,7-2.373q2.725-2.373,2.725-7.119ZM43.33-32.109V0H38.467V-32.109ZM40.957-44.121a2.985,2.985,0,0,1,2.065.776,3.092,3.092,0,0,1,.864,2.417,3.1,3.1,0,0,1-.864,2.4,2.954,2.954,0,0,1-2.065.791,2.926,2.926,0,0,1-2.095-.791,3.162,3.162,0,0,1-.835-2.4,3.154,3.154,0,0,1,.835-2.417A2.957,2.957,0,0,1,40.957-44.121ZM63.984-3.4A15.3,15.3,0,0,0,66.445-3.6,11.264,11.264,0,0,0,68.5-4.1V-.322a10.3,10.3,0,0,1-2.358.645,17.089,17.089,0,0,1-2.944.264,11.611,11.611,0,0,1-4.629-.894A7.011,7.011,0,0,1,55.239-3.34a11.8,11.8,0,0,1-1.245-5.918V-28.3h-4.57v-2.373l4.6-1.9,1.934-6.973h2.93v7.441h9.4V-28.3h-9.4V-9.4a6.417,6.417,0,0,0,1.392,4.512A4.823,4.823,0,0,0,63.984-3.4ZM78.164,0H75.176V-45.586h2.988Zm21.68-32.4q5.244,0,7.852,2.637t2.607,8.408V0h-2.285l-.527-5.566h-.176a13.9,13.9,0,0,1-2.49,3.179,10.408,10.408,0,0,1-3.589,2.183,14.879,14.879,0,0,1-5.171.791A12.289,12.289,0,0,1,90.806-.439a7.612,7.612,0,0,1-3.369-2.988A9.069,9.069,0,0,1,86.25-8.2a8.018,8.018,0,0,1,3.926-7.222q3.926-2.476,11.279-2.8l5.918-.293V-20.83q0-4.893-1.934-6.973a7.424,7.424,0,0,0-5.713-2.08,17.618,17.618,0,0,0-4.731.63,25.7,25.7,0,0,0-4.614,1.8l-.937-2.461A28.872,28.872,0,0,1,94.351-31.7,21.121,21.121,0,0,1,99.844-32.4Zm7.5,16.2-5.566.234q-6.064.293-9.229,2.168a6.123,6.123,0,0,0-3.164,5.625,5.748,5.748,0,0,0,1.89,4.629,7.856,7.856,0,0,0,5.259,1.611q5.244,0,8.013-2.988a11.618,11.618,0,0,0,2.8-8.145Zm16.084-29.385v12.949q0,1.67-.059,3.662t-.117,3.311h.176a10.371,10.371,0,0,1,3.984-4.893,12.32,12.32,0,0,1,7.09-1.934q6.211,0,9.595,4.189t3.384,12.275a22.885,22.885,0,0,1-1.523,8.687,12.789,12.789,0,0,1-4.526,5.83A12.823,12.823,0,0,1,133.916.586a11.8,11.8,0,0,1-6.65-1.714,10.177,10.177,0,0,1-3.75-4.292h-.234L122.725,0h-2.256V-45.586ZM134.18-29.912a10.67,10.67,0,0,0-6.152,1.626,9.353,9.353,0,0,0-3.486,4.731,22.624,22.624,0,0,0-1.113,7.588v.469q0,6.592,2.4,10.049t7.793,3.457q5.332,0,8.071-3.647t2.739-10.386q0-6.885-2.549-10.386T134.18-29.912Z" transform="translate(96.849 58)" fill="#8d979e"/>
  </g>
</svg>
