<svg xmlns="http://www.w3.org/2000/svg" xmlns:xlink="http://www.w3.org/1999/xlink" width="16" height="12" viewBox="0 0 16 12">
  <defs>
    <clipPath id="clip-code">
      <rect width="16" height="12"/>
    </clipPath>
  </defs>
  <g id="code" clip-path="url(#clip-code)">
    <path id="Path_979" data-name="Path 979" d="M174.526,151.138a.644.644,0,0,0-.6.47l-2.578,8.592a.645.645,0,1,0,1.235.369l2.578-8.592a.644.644,0,0,0-.631-.839Zm-5.242.578a.644.644,0,0,0-.436.208l-3.437,3.652a.645.645,0,0,0,0,.879l3.437,3.652a.644.644,0,1,0,.94-.879l-3.021-3.209,3.021-3.215a.645.645,0,0,0-.5-1.087Zm7.82,0a.644.644,0,0,0-.416,1.087l3.021,3.215-3.021,3.208h0a.644.644,0,1,0,.94.879l3.437-3.652a.645.645,0,0,0,0-.879l-3.437-3.652a.645.645,0,0,0-.524-.208Z" transform="translate(-165.237 -150.083)" fill="#616d74"/>
  </g>
</svg>
