<svg xmlns="http://www.w3.org/2000/svg" xmlns:xlink="http://www.w3.org/1999/xlink" width="12" height="12" viewBox="0 0 12 12">
  <defs>
    <clipPath id="clip-data">
      <rect width="12" height="12"/>
    </clipPath>
  </defs>
  <g id="data" clip-path="url(#clip-data)">
    <g id="Group_303" data-name="Group 303" transform="translate(-1351.017 -1376.499)">
      <g id="Group_301" data-name="Group 301" transform="translate(1351.75 1376.499)">
        <path id="Union_13" data-name="Union 13" d="M5.777,11.332c0-.1,0-.623,0-1.274V9.966c0-1.328,0-3.132,0-3.132a.967.967,0,0,1,.486-.842l3.768-2.175c.565-.3.5.251.5.58,0,.1,0,.623,0,1.274v.093c0,1.326,0,3.132,0,3.132a.969.969,0,0,1-.488.842L6.279,11.913A.609.609,0,0,1,6.008,12C5.74,12,5.78,11.6,5.777,11.332ZM4.255,11.9.488,9.724A.975.975,0,0,1,0,8.881s0-1.8,0-3.131V5.655C0,5,0,4.484,0,4.383.006,4.05-.06,3.5.5,3.8L4.271,5.975a.971.971,0,0,1,.486.842s0,1.8,0,3.132v.093c0,.651,0,1.172,0,1.274,0,.264.038.668-.231.668A.6.6,0,0,1,4.255,11.9Zm.516-6.844-3.635-2.1c-.021-.01-.034-.021-.047-.028-.254-.173-.516-.364.094-.722l.09-.052L4.772.13a.963.963,0,0,1,.967,0l3.5,2.018c.034.018.065.036.09.053.61.358.348.549.093.72l-.045.03L5.74,5.051a.973.973,0,0,1-.483.129A1,1,0,0,1,4.771,5.053Z" fill="#616d74"/>
      </g>
    </g>
  </g>
</svg>
