<svg xmlns="http://www.w3.org/2000/svg" xmlns:xlink="http://www.w3.org/1999/xlink" width="36" height="36" viewBox="0 0 36 36">
  <defs>
    <clipPath id="clip-github">
      <rect width="36" height="36"/>
    </clipPath>
  </defs>
  <g id="github" clip-path="url(#clip-github)">
    <path id="Path_982" data-name="Path 982" d="M33.585,14.33a17.922,17.922,0,0,0-6.551-6.551A17.606,17.606,0,0,0,18,5.365,17.608,17.608,0,0,0,8.965,7.779,17.92,17.92,0,0,0,2.414,14.33,17.607,17.607,0,0,0,0,23.364,17.493,17.493,0,0,0,3.434,33.946a17.629,17.629,0,0,0,8.871,6.5,1.049,1.049,0,0,0,.937-.164.917.917,0,0,0,.3-.7q0-.07-.012-1.266t-.012-2.086l-.539.093a6.877,6.877,0,0,1-1.3.082,9.911,9.911,0,0,1-1.629-.164,3.64,3.64,0,0,1-1.57-.7A2.974,2.974,0,0,1,7.453,34.1l-.234-.539a5.856,5.856,0,0,0-.738-1.2,2.828,2.828,0,0,0-1.019-.891L5.3,31.357a1.721,1.721,0,0,1-.3-.281,1.286,1.286,0,0,1-.211-.328q-.07-.164.117-.27a1.52,1.52,0,0,1,.68-.1l.469.07a3.421,3.421,0,0,1,1.16.562,3.783,3.783,0,0,1,1.137,1.218,4.131,4.131,0,0,0,1.3,1.465,2.759,2.759,0,0,0,1.535.5,6.665,6.665,0,0,0,1.336-.117,4.662,4.662,0,0,0,1.055-.352,3.8,3.8,0,0,1,1.148-2.414,16.048,16.048,0,0,1-2.4-.422,9.565,9.565,0,0,1-2.2-.914A6.31,6.31,0,0,1,8.226,28.4,7.546,7.546,0,0,1,7,25.942a11.7,11.7,0,0,1-.48-3.516A6.836,6.836,0,0,1,8.367,17.6a6.3,6.3,0,0,1,.164-4.781,3.284,3.284,0,0,1,2.016.316,14.092,14.092,0,0,1,1.957.9q.621.374,1,.633a16.927,16.927,0,0,1,9,0l.891-.562a12.613,12.613,0,0,1,2.156-1.031,3.071,3.071,0,0,1,1.9-.258,6.24,6.24,0,0,1,.187,4.781,6.837,6.837,0,0,1,1.852,4.828A11.833,11.833,0,0,1,29,25.954a7.253,7.253,0,0,1-1.242,2.461,6.552,6.552,0,0,1-1.9,1.559,9.583,9.583,0,0,1-2.2.914,16.032,16.032,0,0,1-2.4.422,4.174,4.174,0,0,1,1.218,3.328v4.945a.934.934,0,0,0,.293.7,1.018,1.018,0,0,0,.926.164,17.627,17.627,0,0,0,8.871-6.5A17.5,17.5,0,0,0,36,23.364,17.621,17.621,0,0,0,33.585,14.33Z" transform="translate(0 -4.925)" fill="#616d74"/>
  </g>
</svg>
