<svg xmlns="http://www.w3.org/2000/svg" xmlns:xlink="http://www.w3.org/1999/xlink" width="36" height="36" viewBox="0 0 36 36">
  <defs>
    <clipPath id="clip-medium">
      <rect width="36" height="36"/>
    </clipPath>
  </defs>
  <g id="medium" clip-path="url(#clip-medium)">
    <path id="Path_983" data-name="Path 983" d="M-5094,21a17.889,17.889,0,0,1-7.007-1.415,17.936,17.936,0,0,1-5.721-3.858,17.95,17.95,0,0,1-3.858-5.722A17.89,17.89,0,0,1-5112,3a17.889,17.889,0,0,1,1.415-7.006,17.949,17.949,0,0,1,3.858-5.721,17.936,17.936,0,0,1,5.721-3.858A17.889,17.889,0,0,1-5094-15a17.889,17.889,0,0,1,7.006,1.415,17.943,17.943,0,0,1,5.721,3.858,17.936,17.936,0,0,1,3.857,5.721A17.889,17.889,0,0,1-5076,3a17.89,17.89,0,0,1-1.415,7.007,17.936,17.936,0,0,1-3.857,5.722,17.943,17.943,0,0,1-5.721,3.858A17.888,17.888,0,0,1-5094,21Zm2.7-10.611v.486h9.351v-.491h-.581l-.117,0a2.354,2.354,0,0,1-1.08-.264,1.294,1.294,0,0,1-.594-.6,5.811,5.811,0,0,1-.162-1.71V-3.975a5.285,5.285,0,0,1,.162-1.642,1.294,1.294,0,0,1,.509-.621,2.5,2.5,0,0,1,1.143-.277l.121,0h.581V-7h-7.276L-5094.1,4.782-5099.121-7h-7.3v.486h.567l.113,0a2.4,2.4,0,0,1,1.083.259,1.324,1.324,0,0,1,.594.594,5.83,5.83,0,0,1,.145,1.692V7.338c0,.6-.015.991-.023,1.2,0,.067,0,.121,0,.148a2.462,2.462,0,0,1-.4.958,1.807,1.807,0,0,1-.778.549,2.815,2.815,0,0,1-1.03.194h-.262v.486h6.116v-.481c-.08.006-.159.009-.234.009a3.082,3.082,0,0,1-1.566-.427,1.862,1.862,0,0,1-.742-1.076,10.935,10.935,0,0,1-.067-1.625v-12.6l6.961,16.2h.315l6.854-16.308V7.815a5.345,5.345,0,0,1-.145,1.66,1.264,1.264,0,0,1-.526.634,2.508,2.508,0,0,1-1.152.281l-.112,0Z" transform="translate(5112 15)" fill="#616d74"/>
  </g>
</svg>
