<svg xmlns="http://www.w3.org/2000/svg" xmlns:xlink="http://www.w3.org/1999/xlink" width="12" height="12" viewBox="0 0 12 12">
  <defs>
    <clipPath id="clip-poster">
      <rect width="12" height="12"/>
    </clipPath>
  </defs>
  <g id="poster" clip-path="url(#clip-poster)">
    <path id="Path_1095" data-name="Path 1095" d="M-6184.982,57h-6.685A1.335,1.335,0,0,1-6193,55.667V47.333A1.335,1.335,0,0,1-6191.667,46h6.685a1.335,1.335,0,0,1,1.333,1.334v8.333A1.335,1.335,0,0,1-6184.982,57Zm-5.85-9.5a1,1,0,0,0-1,1v6a1,1,0,0,0,1,1h5.017a1,1,0,0,0,1-1v-6a1,1,0,0,0-1-1h-5.017Z" transform="translate(6194.308 -45)" fill="#616d74"/>
    <path id="Path_1092" data-name="Path 1092" d="M302.55,186.219l1.3.754a.415.415,0,0,0,.3,0l1.3-.754a.347.347,0,0,0,.151-.264v-1.508a.381.381,0,0,0-.151-.264l-1.3-.754a.415.415,0,0,0-.3,0l-1.3.754a.347.347,0,0,0-.151.264v1.508A.382.382,0,0,0,302.55,186.219Z" transform="translate(-298.081 -179.683)" fill="#616d74"/>
    <path id="Path_1093" data-name="Path 1093" d="M283.36,331.52h2.414v1.138H283.36Z" transform="translate(-328.339 285.774) rotate(-90)" fill="#616d74"/>
    <path id="Path_1096" data-name="Path 1096" d="M283.36,331.52h2.414v1.138H283.36Z" transform="translate(-323.996 285.774) rotate(-90)" fill="#616d74"/>
    <path id="Path_1097" data-name="Path 1097" d="M283.36,331.52h3.412v1.138H283.36Z" transform="translate(-279.066 -323.32)" fill="#616d74"/>
  </g>
</svg>
