<svg xmlns="http://www.w3.org/2000/svg" xmlns:xlink="http://www.w3.org/1999/xlink" width="36" height="36" viewBox="0 0 36 36">
  <defs>
    <clipPath id="clip-twitter">
      <rect width="36" height="36"/>
    </clipPath>
  </defs>
  <g id="twitter" clip-path="url(#clip-twitter)">
    <path id="Path_981" data-name="Path 981" d="M-5094,20a18.146,18.146,0,0,1-12.729-5.126,17.424,17.424,0,0,1-3.858-5.562A16.977,16.977,0,0,1-5112,2.5a16.981,16.981,0,0,1,1.415-6.812,17.424,17.424,0,0,1,3.858-5.563A18.146,18.146,0,0,1-5094-15a18.144,18.144,0,0,1,12.728,5.126,17.425,17.425,0,0,1,3.858,5.563A16.981,16.981,0,0,1-5076,2.5a16.978,16.978,0,0,1-1.415,6.811,17.424,17.424,0,0,1-3.858,5.562A18.145,18.145,0,0,1-5094,20Zm-10.161-10.665h0a11.938,11.938,0,0,0,6.46,1.9h.007a12.155,12.155,0,0,0,5.149-1.092,11.356,11.356,0,0,0,3.762-2.82,12.415,12.415,0,0,0,3.092-8.092c0-.183,0-.361-.012-.545a8.568,8.568,0,0,0,2.1-2.187,8.408,8.408,0,0,1-2.423.663,4.23,4.23,0,0,0,1.855-2.334,8.432,8.432,0,0,1-2.679,1.024,4.241,4.241,0,0,0-3.078-1.33,4.236,4.236,0,0,0-1.993.5A4.225,4.225,0,0,0-5094.034-.3a12,12,0,0,1-8.7-4.407,4.229,4.229,0,0,0,1.307,5.632A4.215,4.215,0,0,1-5103.335.4V.452a4.233,4.233,0,0,0,3.384,4.136,4.221,4.221,0,0,1-1.11.149,4.2,4.2,0,0,1-.793-.076,4.224,4.224,0,0,0,3.938,2.93,8.5,8.5,0,0,1-5.22,1.8h-.017A8.58,8.58,0,0,1-5104.161,9.335Z" transform="translate(5112 15.5)" fill="#616d74"/>
  </g>
</svg>
