<svg xmlns="http://www.w3.org/2000/svg" xmlns:xlink="http://www.w3.org/1999/xlink" width="36" height="36" viewBox="0 0 36 36">
  <defs>
    <clipPath id="clip-youtube">
      <rect width="36" height="36"/>
    </clipPath>
  </defs>
  <g id="youtube" clip-path="url(#clip-youtube)">
    <g id="youtube-logotype" transform="translate(0 0.373)">
      <g id="Group_299" data-name="Group 299">
        <path id="Path_779" data-name="Path 779" d="M25.676,50.286h1.4V57.85H28.4V50.286h1.424V49.047H25.676Z" transform="translate(-16.194 -31.358)" fill="#616d74"/>
        <path id="Path_780" data-name="Path 780" d="M52.39,51.21a1.609,1.609,0,0,0-1.228.711V49.046H49.973v8.8h1.188v-.635a1.62,1.62,0,0,0,1.228.726.941.941,0,0,0,.95-.737,5.222,5.222,0,0,0,.12-1.322V53.269a5.039,5.039,0,0,0-.12-1.318A.94.94,0,0,0,52.39,51.21Zm-.119,4.764c0,.593-.174.885-.517.885a.848.848,0,0,1-.593-.292v-4a.853.853,0,0,1,.593-.29c.343,0,.517.3.517.9Z" transform="translate(-31.527 -31.357)" fill="#616d74"/>
        <path id="Path_781" data-name="Path 781" d="M39.872,60.281c-.264.373-.513.556-.752.556-.159,0-.249-.093-.278-.278a3.672,3.672,0,0,1-.011-.462V55.268H37.643v5.186a3.344,3.344,0,0,0,.1.976.73.73,0,0,0,.766.488,1.9,1.9,0,0,0,1.359-.806v.716h1.189v-6.56H39.872Z" transform="translate(-23.749 -35.335)" fill="#616d74"/>
        <path id="Path_782" data-name="Path 782" d="M45.636,30.263c.387,0,.573-.307.573-.92V26.555c0-.613-.186-.919-.573-.919s-.573.306-.573.919v2.788C45.063,29.957,45.249,30.263,45.636,30.263Z" transform="translate(-28.455 -16.39)" fill="#616d74"/>
        <path id="Path_783" data-name="Path 783" d="M18,0A17.817,17.817,0,0,0,0,17.627,17.817,17.817,0,0,0,18,35.255,17.817,17.817,0,0,0,36,17.627,17.817,17.817,0,0,0,18,0Zm2,8.245h1.223v4.88a2.77,2.77,0,0,0,.015.467c.027.186.123.281.288.281.245,0,.5-.186.775-.562V8.245h1.226v6.629H22.3v-.723a1.979,1.979,0,0,1-1.4.814.754.754,0,0,1-.79-.492A3.284,3.284,0,0,1,20,13.487V8.245ZM15.37,10.406a2.535,2.535,0,0,1,.384-1.562,1.843,1.843,0,0,1,2.859,0,2.561,2.561,0,0,1,.38,1.562v2.321a2.553,2.553,0,0,1-.38,1.559,1.845,1.845,0,0,1-2.859,0,2.527,2.527,0,0,1-.384-1.559ZM12.09,5.978l.966,3.493.928-3.493h1.376l-1.636,5.293v3.6h-1.36v-3.6a21.559,21.559,0,0,0-.832-2.814c-.287-.826-.585-1.654-.872-2.478H12.09Zm15.6,21.093A2.519,2.519,0,0,1,25.519,29a68.877,68.877,0,0,1-7.52.272A68.875,68.875,0,0,1,10.479,29a2.517,2.517,0,0,1-2.17-1.932,20.614,20.614,0,0,1-.35-4.649,20.639,20.639,0,0,1,.354-4.649,2.516,2.516,0,0,1,2.17-1.932A68.884,68.884,0,0,1,18,15.569a68.877,68.877,0,0,1,7.52.272,2.519,2.519,0,0,1,2.171,1.932,20.679,20.679,0,0,1,.347,4.649A20.615,20.615,0,0,1,27.69,27.072Z" fill="#616d74"/>
        <path id="Path_784" data-name="Path 784" d="M64,55.046a1.688,1.688,0,0,0-1.424.672,2.558,2.558,0,0,0-.367,1.545v2.3a2.532,2.532,0,0,0,.382,1.542,1.7,1.7,0,0,0,1.438.672,1.643,1.643,0,0,0,1.437-.711,1.693,1.693,0,0,0,.278-.712c.011-.119.025-.383.025-.766v-.173H64.553a7.786,7.786,0,0,1-.026.8.511.511,0,0,1-.531.476c-.408,0-.608-.3-.608-.91V58.622h2.377V57.263a2.578,2.578,0,0,0-.368-1.545A1.65,1.65,0,0,0,64,55.046Zm.581,2.587H63.388v-.607q0-.91.6-.91c.393,0,.592.3.592.91Z" transform="translate(-39.242 -35.193)" fill="#616d74"/>
      </g>
    </g>
  </g>
</svg>
